<?xml version="1.0" encoding="utf-8"?>
<!-- Generator: Adobe Illustrator 28.0.0, SVG Export Plug-In . SVG Version: 6.00 Build 0)  -->
<svg version="1.1" id="Layer_1" xmlns="http://www.w3.org/2000/svg" xmlns:xlink="http://www.w3.org/1999/xlink" x="0px" y="0px"
	 viewBox="0 0 520 520" style="enable-background:new 0 0 520 520;" xml:space="preserve">
<style type="text/css">
	.st0{fill:none;stroke:#000000;stroke-width:1.442;stroke-miterlimit:10;}
	.st1{fill:#FF9F9F;}
	.st2{font-family:'Modern-Regular';}
	.st3{font-size:288.3989px;}
	.st4{fill:none;stroke:#FF9F9F;stroke-width:1.442;stroke-miterlimit:10;}
	.st5{fill:#FFFFFF;stroke:#000000;stroke-miterlimit:10;}
	.st6{fill:none;}
</style>
<ellipse transform="matrix(0.8939 -0.4483 0.4483 0.8939 -96.1709 146.5692)" class="st0" cx="261.5" cy="276.42" rx="243.7" ry="139.15"/>
<text transform="matrix(1 0 0 1 110.2236 259.8809)" class="st1 st2 st3">L</text>
<text transform="matrix(1 0 0 1 223.7178 449.959)" class="st2 st3">Y</text>
<ellipse transform="matrix(0.5 -0.866 0.866 0.5 -97.4478 364.2854)" class="st4" cx="266.76" cy="266.53" rx="139.15" ry="243.7"/>
<path class="st5" d="M-8.82,202.85"/>
<path class="st5" d="M-8.82,203.42"/>
<path class="st0" d="M39.24,97.46"/>
<path class="st6" d="M53,27"/>
<g>
	<path d="M400.5,176.41c-23.79,6.57-29.12,11.9-35.69,35.69c-6.57-23.79-11.9-29.12-35.69-35.69c23.79-6.57,29.12-11.9,35.69-35.69
		C371.38,164.51,376.71,169.84,400.5,176.41z"/>
</g>
<g>
	<path d="M218.45,416.5c-11.54,3.19-14.12,5.77-17.3,17.3c-3.19-11.54-5.77-14.12-17.3-17.3c11.54-3.19,14.12-5.77,17.3-17.3
		C204.33,410.73,206.91,413.32,218.45,416.5z"/>
</g>
<g>
	<path class="st1" d="M80.38,300.42c-23.79,6.57-29.12,11.9-35.69,35.69c-6.57-23.79-11.9-29.12-35.69-35.69
		c23.79-6.57,29.12-11.9,35.69-35.69C51.26,288.53,56.59,293.85,80.38,300.42z"/>
</g>
<g>
	<path class="st1" d="M421.77,141.08c-11.54,3.19-14.12,5.77-17.3,17.3c-3.19-11.54-5.77-14.12-17.3-17.3
		c11.54-3.19,14.12-5.77,17.3-17.3C407.65,135.31,410.23,137.9,421.77,141.08z"/>
</g>
</svg>
