<?xml version="1.0" encoding="utf-8"?>
<!-- Generator: Adobe Illustrator 28.0.0, SVG Export Plug-In . SVG Version: 6.00 Build 0)  -->
<svg version="1.1" id="Layer_1" xmlns="http://www.w3.org/2000/svg" xmlns:xlink="http://www.w3.org/1999/xlink" x="0px" y="0px"
	 viewBox="0 0 520 520" style="enable-background:new 0 0 520 520;" xml:space="preserve">
<style type="text/css">
	.st0{fill:none;stroke:#000000;stroke-miterlimit:10;}
	.st1{fill:#FF9F9F;}
	.st2{fill:none;stroke:#FF9F9F;stroke-miterlimit:10;}
	.st3{fill:#FFFFFF;stroke:#000000;stroke-miterlimit:10;}
	.st4{fill:none;}
</style>
<ellipse transform="matrix(0.8939 -0.4483 0.4483 0.8939 -88.389 146.3159)" class="st0" cx="264.85" cy="259.85" rx="169" ry="96.5"/>
<g>
	<path class="st1" d="M242.48,245.98c16.09,0,28.39-4.92,36.9-14.75c8.51-9.83,12.77-24.72,12.77-44.65h2.6v61.8h-130.8v-2
		c5.87,0,10.87-0.2,15-0.6c4.13-0.4,6.97-0.9,8.5-1.51c1.53-0.6,2.53-1.34,3-2.21c0.47-0.87,0.7-3.18,0.7-6.92V132.42
		c0-3.88-0.27-6.28-0.8-7.22c-0.27-0.53-1.17-1.07-2.7-1.6c-1.53-0.53-4.53-1.07-9-1.61c-4.47-0.53-9.37-0.8-14.7-0.8v-1.8h82.2v1.8
		c-7.47,0-13.3,0.2-17.5,0.6c-4.2,0.4-7.17,0.93-8.9,1.6c-1.73,0.67-2.73,1.27-3,1.81c-0.67,1.21-1,3.61-1,7.23v102.53
		c0,3.88,0.27,6.35,0.8,7.42c0.27,0.54,1.06,1.07,2.39,1.61C223.46,245.32,231.31,245.98,242.48,245.98z"/>
</g>
<g>
	<path d="M305.45,325.63l-36-61.4c-2.8-4.95-5.73-8.06-8.8-9.33c-3.07-1.27-9.67-1.91-19.8-1.91v-1.8h79v1.8
		c-8.27,0-14.3,0.54-18.1,1.61c-3.8,1.07-5.7,2.94-5.7,5.62c0,1.47,0.59,3.21,1.78,5.22l31.62,53.76l21.97-36.91
		c2.96-5.21,4.43-9.83,4.43-13.84c0-10.3-7.33-15.45-22-15.45v-1.8h53.4v1.8c-8.67,0-15.8,3.4-21.4,10.2
		c-5.73,9.47-10.2,16.8-13.4,22l-22.4,37.8v43.92c0,3.89,0.27,6.38,0.8,7.45c0.27,0.54,1.2,1.11,2.8,1.71
		c1.6,0.61,4.67,1.11,9.2,1.51c4.53,0.4,10.6,0.6,18.2,0.6v2h-86.6v-2c7.6,0,13.67-0.2,18.2-0.6c4.53-0.4,7.6-0.9,9.2-1.51
		c1.6-0.6,2.53-1.17,2.8-1.71c0.53-1.07,0.8-3.54,0.8-7.42V325.63z"/>
</g>
<ellipse transform="matrix(0.5 -0.866 0.866 0.5 -84.8544 359.0278)" class="st2" cx="268.5" cy="253" rx="96.5" ry="169"/>
<path class="st3" d="M-8.82,202.85"/>
<path class="st3" d="M-8.82,203.42"/>
<path class="st0" d="M110.72,135.75"/>
<path class="st4" d="M53,27"/>
<g>
	<path d="M361.25,190.5c-16.5,4.56-20.19,8.25-24.75,24.75c-4.56-16.5-8.25-20.19-24.75-24.75c16.5-4.56,20.19-8.25,24.75-24.75
		C341.06,182.25,344.75,185.94,361.25,190.5z"/>
</g>
<g>
	<path d="M235,357c-8,2.21-9.79,4-12,12c-2.21-8-4-9.79-12-12c8-2.21,9.79-4,12-12C225.21,353,227,354.79,235,357z"/>
</g>
<g>
	<path class="st1" d="M139.25,276.5c-16.5,4.56-20.19,8.25-24.75,24.75c-4.56-16.5-8.25-20.19-24.75-24.75
		c16.5-4.56,20.19-8.25,24.75-24.75C119.06,268.25,122.75,271.94,139.25,276.5z"/>
</g>
<g>
	<path class="st1" d="M376,166c-8,2.21-9.79,4-12,12c-2.21-8-4-9.79-12-12c8-2.21,9.79-4,12-12C366.21,162,368,163.79,376,166z"/>
</g>
</svg>
