<svg width="23" height="23" viewBox="0 0 23 23" fill='current' xmlns="http://www.w3.org/2000/svg" class="star-icon fill-theme">
<path d="M10.7656 1.00311C10.8204 0.85229 10.9202 0.721981 11.0516 0.629892C11.183 0.537804 11.3395 0.488403 11.5 0.488403C11.6604 0.488403 11.817 0.537804 11.9484 0.629892C12.0798 0.721981 12.1796 0.85229 12.2344 1.00311L12.9812 3.04374C13.5662 4.64388 14.4935 6.09705 15.6982 7.30177C16.9029 8.5065 18.3561 9.43373 19.9562 10.0187L21.9953 10.7656C22.1461 10.8204 22.2764 10.9202 22.3685 11.0516C22.4606 11.183 22.51 11.3395 22.51 11.5C22.51 11.6604 22.4606 11.817 22.3685 11.9484C22.2764 12.0798 22.1461 12.1796 21.9953 12.2344L19.9562 12.9812C18.3561 13.5662 16.9029 14.4935 15.6982 15.6982C14.4935 16.9029 13.5662 18.3561 12.9812 19.9562L12.2344 21.9953C12.1796 22.1461 12.0798 22.2764 11.9484 22.3685C11.817 22.4606 11.6604 22.51 11.5 22.51C11.3395 22.51 11.183 22.4606 11.0516 22.3685C10.9202 22.2764 10.8204 22.1461 10.7656 21.9953L10.0187 19.9562C9.43373 18.3561 8.5065 16.9029 7.30177 15.6982C6.09705 14.4935 4.64388 13.5662 3.04374 12.9812L1.00311 12.2344C0.85229 12.1796 0.721981 12.0798 0.629892 11.9484C0.537804 11.817 0.488403 11.6604 0.488403 11.5C0.488403 11.3395 0.537804 11.183 0.629892 11.0516C0.721981 10.9202 0.85229 10.8204 1.00311 10.7656L3.04374 10.0187C4.64388 9.43373 6.09705 8.5065 7.30177 7.30177C8.5065 6.09705 9.43373 4.64388 10.0187 3.04374L10.7656 1.00311Z" fill='#ff7289'/> 
</svg>
