<?xml version="1.0" encoding="utf-8"?>
<!-- Generator: Adobe Illustrator 28.0.0, SVG Export Plug-In . SVG Version: 6.00 Build 0)  -->
<svg version="1.1" id="Layer_1" xmlns="http://www.w3.org/2000/svg" xmlns:xlink="http://www.w3.org/1999/xlink" x="0px" y="0px"
	 viewBox="0 0 520 520" style="enable-background:new 0 0 520 520;" xml:space="preserve">
<style type="text/css">
	.st0{fill:#FFFFFF;}
	.st1{fill:none;stroke:#000000;stroke-width:1.442;stroke-miterlimit:10.0002;}
	.st2{fill:#FF9F9F;}
	.st3{enable-background:new    ;}
	.st4{fill:none;stroke:#FF9F9F;stroke-width:1.442;stroke-miterlimit:9.9998;}
	.st5{fill:#FFFFFF;stroke:#000000;stroke-miterlimit:10;}
	.st6{fill:none;stroke:#000000;stroke-width:1.442;stroke-miterlimit:10;}
	.st7{fill:none;}
</style>
<circle class="st0" cx="261.7" cy="263.6" r="252.4"/>
<ellipse transform="matrix(0.8939 -0.4483 0.4483 0.8939 -96.173 146.563)" class="st1" cx="261.5" cy="276.4" rx="243.7" ry="139.2"/>
<g>
	<path class="st2" d="M229.2,256.5c23.2,0,40.9-7.1,53.2-21.3s21.2-35.6,21.2-64.4h0.9V260H116v-2.9c8.5,0,15.7-0.3,21.6-0.9
		c6-0.6,10-1.3,12.3-2.2c2.2-0.9,3.6-1.9,4.3-3.2c0.7-1.2,1-4.6,1-10V92.8c0-5.6-0.4-9.1-1.1-10.4c-0.4-0.8-1.7-1.5-3.9-2.3
		c-2.2-0.8-6.5-1.5-13-2.3c-6.4-0.8-13.5-1.2-21.2-1.2V74h118.5v2.6c-10.8,0-19.2,0.3-25.2,0.9c-6.1,0.6-10.3,1.3-12.8,2.3
		c-2.5,1-3.9,1.8-4.3,2.6c-1,1.7-1.4,5.2-1.4,10.4v147.9c0,5.6,0.4,9.2,1.1,10.7c0.4,0.8,1.5,1.6,3.4,2.3
		C201.8,255.6,213.1,256.5,229.2,256.5z"/>
</g>
<g class="st3">
	<path d="M320,371.3l-51.9-88.5c-4-7.1-8.3-11.6-12.7-13.5c-4.4-1.8-13.9-2.7-28.6-2.7v-2.6h113.9v2.6c-11.9,0-20.6,0.8-26.1,2.3
		s-8.2,4.2-8.2,8.1c0,2.1,0.9,4.6,2.6,7.5l45.6,77.5l31.7-53.2c4.3-7.5,6.4-14.2,6.4-20c0-14.8-10.6-22.3-31.7-22.3v-2.6h77v2.6
		c-12.5,0-22.8,4.9-30.9,14.7c-8.3,13.7-14.7,24.2-19.3,31.7l-32.3,54.5v63.3c0,5.6,0.4,9.2,1.2,10.7c0.4,0.8,1.7,1.6,4,2.5
		c2.3,0.9,6.7,1.6,13.3,2.2c6.5,0.6,15.3,0.9,26.2,0.9v2.9H275.3v-2.9c11,0,19.7-0.3,26.2-0.9c6.5-0.6,11-1.3,13.3-2.2
		c2.3-0.9,3.6-1.7,4-2.5c0.8-1.5,1.2-5.1,1.2-10.7V371.3z"/>
</g>
<ellipse transform="matrix(0.5 -0.866 0.866 0.5 -97.4548 364.2733)" class="st4" cx="266.7" cy="266.5" rx="139.1" ry="243.7"/>
<path class="st5" d="M-8.8,202.9"/>
<path class="st5" d="M-8.8,203.4"/>
<path class="st6" d="M39.2,97.5"/>
<path class="st7" d="M53,27"/>
<g>
	<path d="M400.5,176.4c-23.8,6.6-29.1,11.9-35.7,35.7c-6.6-23.8-11.9-29.1-35.7-35.7c23.8-6.6,29.1-11.9,35.7-35.7
		C371.4,164.5,376.7,169.8,400.5,176.4z"/>
</g>
<g>
	<path d="M218.4,416.5c-11.5,3.2-14.1,5.8-17.3,17.3c-3.2-11.5-5.8-14.1-17.3-17.3c11.5-3.2,14.1-5.8,17.3-17.3
		C204.3,410.7,206.9,413.3,218.4,416.5z"/>
</g>
<g>
	<path class="st2" d="M80.4,300.4c-23.8,6.6-29.1,11.9-35.7,35.7C38.1,312.3,32.8,307,9,300.4c23.8-6.6,29.1-11.9,35.7-35.7
		C51.3,288.5,56.6,293.9,80.4,300.4z"/>
</g>
<g>
	<path class="st2" d="M421.8,141.1c-11.5,3.2-14.1,5.8-17.3,17.3c-3.2-11.5-5.8-14.1-17.3-17.3c11.5-3.2,14.1-5.8,17.3-17.3
		C407.6,135.3,410.2,137.9,421.8,141.1z"/>
</g>
</svg>
