<?xml version="1.0" encoding="utf-8"?>
<!-- Generator: Adobe Illustrator 28.0.0, SVG Export Plug-In . SVG Version: 6.00 Build 0)  -->
<svg version="1.1" id="Layer_1" xmlns="http://www.w3.org/2000/svg" xmlns:xlink="http://www.w3.org/1999/xlink" x="0px" y="0px"
	 viewBox="0 0 520 520" style="enable-background:new 0 0 520 520;" xml:space="preserve">
<style type="text/css">
	.st0{fill:#FF9F9F;}
	.st1{fill:#FFFFFF;stroke:#000000;stroke-miterlimit:10;}
	.st2{fill:none;stroke:#000000;stroke-miterlimit:10;}
	.st3{fill:none;}
	.st4{fill:#FFFFFF;}
	.st5{font-family:'Modern-Regular';}
	.st6{font-size:400px;}
	.st7{fill:none;stroke:#F4F4F4;stroke-width:1.5574;stroke-miterlimit:10;}
</style>
<circle class="st0" cx="260" cy="260" r="260"/>
<path class="st1" d="M-8.82,202.85"/>
<path class="st1" d="M-8.82,203.42"/>
<path class="st2" d="M110.72,135.75"/>
<path class="st3" d="M53,27"/>
<text transform="matrix(1 0 0 1 124.4011 382.6995)" class="st4 st5 st6">L</text>
<g>
	<path class="st4" d="M406.75,94.85c-16.5,4.56-20.19,8.25-24.75,24.75c-4.56-16.5-8.25-20.19-24.75-24.75
		c16.5-4.56,20.19-8.25,24.75-24.75C386.56,86.6,390.25,90.29,406.75,94.85z"/>
</g>
<ellipse transform="matrix(0.5 -0.866 0.866 0.5 -95.1666 355.1666)" class="st7" cx="260" cy="260" rx="150.29" ry="263.2"/>
<ellipse transform="matrix(0.866 -0.5 0.5 0.866 -130.1799 174.2152)" class="st7" cx="260" cy="330.03" rx="263.2" ry="150.29"/>
<g>
	<path class="st4" d="M122.75,407.5c-16.5,4.56-20.19,8.25-24.75,24.75c-4.56-16.5-8.25-20.19-24.75-24.75
		c16.5-4.56,20.19-8.25,24.75-24.75C102.56,399.25,106.25,402.94,122.75,407.5z"/>
</g>
<g>
	<path class="st4" d="M127.75,186.35c-16.5,4.56-20.19,8.25-24.75,24.75c-4.56-16.5-8.25-20.19-24.75-24.75
		c16.5-4.56,20.19-8.25,24.75-24.75C107.56,178.1,111.25,181.79,127.75,186.35z"/>
</g>
<g>
	<path class="st4" d="M450.75,391c-16.5,4.56-20.19,8.25-24.75,24.75c-4.56-16.5-8.25-20.19-24.75-24.75
		c16.5-4.56,20.19-8.25,24.75-24.75C430.56,382.75,434.25,386.44,450.75,391z"/>
</g>
</svg>
