<?xml version="1.0" encoding="utf-8"?>
<!-- Generator: Adobe Illustrator 28.0.0, SVG Export Plug-In . SVG Version: 6.00 Build 0)  -->
<svg version="1.1" id="Layer_1" xmlns="http://www.w3.org/2000/svg" xmlns:xlink="http://www.w3.org/1999/xlink" x="0px" y="0px"
	 viewBox="0 0 520 520" style="enable-background:new 0 0 520 520;" xml:space="preserve">
<style type="text/css">
	.st0{fill:#FFFFFF;}
	.st1{fill:none;stroke:#000000;stroke-miterlimit:10;}
	.st2{fill:#FF9F9F;}
	.st3{font-family:'Modern-Regular';}
	.st4{font-size:200px;}
	.st5{fill:none;stroke:#FF9F9F;stroke-miterlimit:10;}
	.st6{fill:#FFFFFF;stroke:#000000;stroke-miterlimit:10;}
	.st7{fill:none;}
</style>
<circle class="st0" cx="248" cy="263" r="175"/>
<ellipse transform="matrix(0.8939 -0.4483 0.4483 0.8939 -95.573 139.9679)" class="st1" cx="247.85" cy="271.85" rx="169" ry="96.5"/>
<text transform="matrix(1 0 0 1 142.9468 260.3848)" class="st2 st3 st4">L</text>
<text transform="matrix(1 0 0 1 221.6526 392.2017)" class="st3 st4">Y</text>
<ellipse transform="matrix(0.5 -0.866 0.866 0.5 -103.7467 350.3054)" class="st5" cx="251.5" cy="265" rx="96.5" ry="169"/>
<path class="st6" d="M-8.82,202.85"/>
<path class="st6" d="M-8.82,203.42"/>
<path class="st1" d="M93.72,147.75"/>
<path class="st7" d="M53,27"/>
<g>
	<path d="M344.25,202.5c-16.5,4.56-20.19,8.25-24.75,24.75c-4.56-16.5-8.25-20.19-24.75-24.75c16.5-4.56,20.19-8.25,24.75-24.75
		C324.06,194.25,327.75,197.94,344.25,202.5z"/>
</g>
<g>
	<path d="M218,369c-8,2.21-9.79,4-12,12c-2.21-8-4-9.79-12-12c8-2.21,9.79-4,12-12C208.21,365,210,366.79,218,369z"/>
</g>
<g>
	<path class="st2" d="M122.25,288.5c-16.5,4.56-20.19,8.25-24.75,24.75c-4.56-16.5-8.25-20.19-24.75-24.75
		c16.5-4.56,20.19-8.25,24.75-24.75C102.06,280.25,105.75,283.94,122.25,288.5z"/>
</g>
<g>
	<path class="st2" d="M359,178c-8,2.21-9.79,4-12,12c-2.21-8-4-9.79-12-12c8-2.21,9.79-4,12-12C349.21,174,351,175.79,359,178z"/>
</g>
</svg>
