<?xml version="1.0" encoding="utf-8"?>
<!-- Generator: Adobe Illustrator 28.0.0, SVG Export Plug-In . SVG Version: 6.00 Build 0)  -->
<svg version="1.1" id="Layer_1" xmlns="http://www.w3.org/2000/svg" xmlns:xlink="http://www.w3.org/1999/xlink" x="0px" y="0px"
	 viewBox="0 0 520 520" style="enable-background:new 0 0 520 520;" xml:space="preserve">
<style type="text/css">
	.st0{fill:#FF9F9F;}
	.st1{fill:#FFFFFF;stroke:#000000;stroke-miterlimit:10;}
	.st2{fill:none;stroke:#000000;stroke-miterlimit:10;}
	.st3{fill:none;}
	.st4{enable-background:new    ;}
	.st5{fill:#FFFFFF;}
</style>
<circle class="st0" cx="260" cy="260" r="260"/>
<path class="st1" d="M-8.8,202.9"/>
<path class="st1" d="M-8.8,203.4"/>
<path class="st2" d="M110.7,135.8"/>
<path class="st3" d="M53,27"/>
<g class="st4">
	<path class="st5" d="M289.5,377.9c32.2,0,56.8-9.8,73.8-29.5c17-19.7,25.5-49.4,25.5-89.3h5.2v123.6H132.4v-4
		c11.7,0,21.7-0.4,30-1.2c8.3-0.8,13.9-1.8,17-3c3.1-1.2,5.1-2.7,6-4.4c0.9-1.7,1.4-6.4,1.4-13.8V150.8c0-7.8-0.5-12.6-1.6-14.4
		c-0.5-1.1-2.3-2.1-5.4-3.2c-3.1-1.1-9.1-2.1-18-3.2c-8.9-1.1-18.7-1.6-29.4-1.6v-3.6h164.4v3.6c-14.9,0-26.6,0.4-35,1.2
		c-8.4,0.8-14.3,1.9-17.8,3.2c-3.5,1.3-5.5,2.5-6,3.6c-1.3,2.4-2,7.2-2,14.5v205.1c0,7.8,0.5,12.7,1.6,14.8c0.5,1.1,2.1,2.1,4.8,3.2
		C251.4,376.6,267.1,377.9,289.5,377.9z"/>
</g>
</svg>
